#!OML:ASF H:\IndianDance\Patient Classification 1\Patient 1\Session 1\dancer.ASF
:FULLY-SPECIFIED
:DEGREES
3033
root 4.01426 14.2865 -8.43368 -175.978 5.53614 -178.018
lowerback 10.4702 -1.05869 2.45157
upperback -6.77671 -0.97131 -1.27681
thorax -13.4342 -0.670702 -2.60046
lowerneck -8.00595 -15.4058 -10.1246
upperneck 0.966865 -19.9354 9.06529
head 3.43322 -9.62416 2.91613
rclavicle 6.01324e-015 2.14687e-014
rhumerus 5.77207 29.6604 -5.08846
rradius 48.2304
rwrist 11.3719
rhand -14.9875 22.6666
rfingers 7.12502
rthumb 11.1768 -7.01576
lclavicle 6.01324e-015 2.14687e-014
lhumerus -7.13797 1.9541 -3.63387
lradius 25.5236
lwrist -4.48487
lhand 12.5554 -349.714
lfingers 7.12502
lthumb 37.5458 36.2073
rfemur -52.4673 -34.257 21.355
rtibia 62.468
rfoot -14.8914 -17.8355
rtoes 15.7807
lfemur -32.3106 25.5776 -27.5195
ltibia 62.9007
lfoot -30.5569 10.2055
ltoes 10.9235
3034
root 4.00635 14.2713 -8.42273 -176.109 5.38431 -177.978
lowerback 10.4604 -1.00054 2.37091
upperback -6.65602 -0.916988 -1.28464
thorax -13.2806 -0.638622 -2.57373
lowerneck -7.91412 -15.4386 -10.1415
upperneck 1.23155 -20.0148 9.10252
head 3.5126 -9.66634 2.91485
rclavicle -1.75924e-014 1.51076e-014
rhumerus 6.24506 29.3321 -5.29689
rradius 45.9752
rwrist 11.2822
rhand -13.4325 21.9574
rfingers 7.12502
rthumb 12.6763 -7.63789
lclavicle -1.75924e-014 1.51076e-014
lhumerus -6.76331 2.22762 -3.37391
lradius 25.4031
lwrist -4.56078
lhand 12.9292 -349.543
lfingers 7.12502
lthumb 37.899 36.2838
rfemur -51.6622 -33.7842 21.5206
rtibia 61.8289
rfoot -12.8761 -16.1533
rtoes 16.0417
lfemur -32.4513 25.4132 -27.462
ltibia 63.3493
lfoot -30.4572 10.179
ltoes 10.9913
3035
root 3.99869 14.2626 -8.41156 -176.225 5.28991 -177.979
lowerback 10.4405 -0.923051 2.23746
upperback -6.54391 -0.84509 -1.30436
thorax -13.1292 -0.593877 -2.53416
lowerneck -7.84056 -15.4594 -10.1563
upperneck 1.49415 -20.0764 9.1496
head 3.59365 -9.69815 2.91672
rclavicle 8.19987e-015 2.46493e-014
rhumerus 6.55103 28.6881 -5.6819
rradius 43.9122
rwrist 11.1745
rhand -11.8087 21.2497
rfingers 7.12502
rthumb 14.2414 -8.242
lclavicle 8.19987e-015 2.46493e-014
lhumerus -6.4102 2.54097 -3.09751
lradius 25.3098
lwrist -4.69402
lhand 13.3485 -349.394
lfingers 7.12502
lthumb 38.2949 36.3242
rfemur -50.6841 -33.0833 21.5181
rtibia 60.7508
rfoot -11.0675 -14.6891
rtoes 16.32
lfemur -32.5395 25.3133 -27.4598
ltibia 63.6601
lfoot -30.3516 10.1629
ltoes 11.0787
3036
root 3.99113 14.2584 -8.39982 -176.332 5.24521 -178.033
lowerback 10.4191 -0.830994 2.04924
upperback -6.43808 -0.762951 -1.34168
thorax -12.9833 -0.5403 -2.48516
lowerneck -7.78092 -15.4658 -10.1697
upperneck 1.74318 -20.1168 9.21429
head 3.67281 -9.71789 2.92515
rclavicle -9.19379e-015 -2.14687e-014
rhumerus 6.70631 27.7427 -6.22758
rradius 42.0544
rwrist 11.0482
rhand -10.1144 20.5312
rfingers 7.12502
rthumb 15.8735 -8.83822
lclavicle -9.19379e-015 -2.14687e-014
lhumerus -6.08899 2.86977 -2.81659
lradius 25.2587
lwrist -4.81848
lhand 13.8068 -349.262
lfingers 7.12502
lthumb 38.7273 36.3359
rfemur -49.6686 -32.2205 21.3474
rtibia 59.482
rfoot -9.51783 -13.5943
rtoes 16.5324
lfemur -32.5807 25.266 -27.5253
ltibia 63.8461
lfoot -30.2414 10.1551
ltoes 11.1813
3037
root 3.98316 14.2569 -8.38704 -176.431 5.23942 -178.144
lowerback 10.4063 -0.730503 1.82307
upperback -6.33864 -0.67652 -1.40249
thorax -12.8507 -0.4827 -2.44137
lowerneck -7.74184 -15.4564 -10.1808
upperneck 1.98348 -20.134 9.29348
head 3.75196 -9.7243 2.93879
rclavicle -2.93207e-015 2.94201e-014
rhumerus 6.73717 26.5476 -6.90209
rradius 40.4135
rwrist 10.865
rhand -8.36028 19.7894
rfingers 7.12502
rthumb 17.5622 -9.43737
lclavicle -2.93207e-015 2.94201e-014
lhumerus -5.80272 3.26109 -2.5313
lradius 25.2568
lwrist -4.94643
lhand 14.2958 -349.142
lfingers 7.12502
lthumb 39.1884 36.3235
rfemur -48.7488 -31.2669 21.0185
rtibia 58.2739
rfoot -8.24914 -12.9511
rtoes 16.6371
lfemur -32.5902 25.2555 -27.6637
ltibia 63.9362
lfoot -30.1268 10.1582
ltoes 11.2585
3038
root 3.9739 14.2566 -8.37293 -176.523 5.26038 -178.306
lowerback 10.4057 -0.629975 1.58096
upperback -6.24406 -0.593445 -1.48467
thorax -12.7324 -0.426561 -2.41121
lowerneck -7.71485 -15.4282 -10.1846
upperneck 2.20169 -20.1237 9.38152
head 3.82416 -9.71597 2.95725
rclavicle -2.98177e-016 -7.15625e-015
rhumerus 6.68619 25.1693 -7.65916
rradius 38.9841
rwrist 10.6044
rhand -6.61374 19.0361
rfingers 7.12502
rthumb 19.2423 -10.032
lclavicle -2.98177e-016 -7.15625e-015
lhumerus -5.56543 3.71682 -2.24785
lradius 25.31
lwrist -5.05627
lhand 14.8269 -349.029
lfingers 7.12502
lthumb 39.6887 36.2905
rfemur -48.021 -30.305 20.5532
rtibia 57.3248
rfoot -7.28054 -12.6867
rtoes 16.7431
lfemur -32.586 25.2608 -27.8701
ltibia 63.9677
lfoot -30.0106 10.1635
ltoes 11.3315
3039
root 3.96274 14.2565 -8.35741 -176.606 5.29961 -178.491
lowerback 10.4172 -0.535736 1.35995
upperback -6.15482 -0.515661 -1.57995
thorax -12.6296 -0.375577 -2.40612
lowerneck -7.69564 -15.3799 -10.178
upperneck 2.39392 -20.084 9.46639
head 3.88566 -9.69273 2.97757
rclavicle 2.68359e-015 -6.36111e-015
rhumerus 6.579 23.6621 -8.47314
rradius 37.7528
rwrist 10.3133
rhand -4.97239 18.3057
rfingers 7.12502
rthumb 20.8199 -10.5972
lclavicle 2.68359e-015 -6.36111e-015
lhumerus -5.38114 4.26118 -1.96244
lradius 25.4142
lwrist -5.17105
lhand 15.3907 -348.906
lfingers 7.12502
lthumb 40.2193 36.2537
rfemur -47.5412 -29.4146 20.0115
rtibia 56.7405
rfoot -6.5801 -12.6512
rtoes 16.8681
lfemur -32.5911 25.2675 -28.1176
ltibia 63.9777
lfoot -29.8888 10.1752
ltoes 11.3675
